<svg xmlns="http://www.w3.org/2000/svg" viewBox="0 0 448.32 639.85"><defs><style>.cls-1{fill:#9bccdd;}.cls-1,.cls-2,.cls-4{stroke:#000;}.cls-1,.cls-2,.cls-24,.cls-4{stroke-miterlimit:10;}.cls-2{fill:#e6e6e6;}.cls-3{font-size:17.27px;}.cls-11,.cls-14,.cls-25,.cls-26,.cls-3,.cls-5{font-family:MyriadPro-Regular, Myriad Pro;}.cls-24,.cls-4{fill:none;}.cls-11,.cls-5{font-size:16.31px;}.cls-25,.cls-5{fill:#666;}.cls-6{letter-spacing:0em;}.cls-7{letter-spacing:0em;}.cls-8{letter-spacing:0.02em;}.cls-9{letter-spacing:-0.01em;}.cls-10{letter-spacing:0em;}.cls-12{letter-spacing:-0.14em;}.cls-13{letter-spacing:0.02em;}.cls-14{font-size:14px;}.cls-15{letter-spacing:-0.01em;}.cls-16{letter-spacing:-0.01em;}.cls-17{letter-spacing:0.01em;}.cls-18{letter-spacing:0.02em;}.cls-19{letter-spacing:-0.01em;}.cls-20{letter-spacing:0.01em;}.cls-21{letter-spacing:0em;}.cls-22{letter-spacing:-0.01em;}.cls-23{letter-spacing:0.01em;}.cls-24{stroke:#b3b3b3;}.cls-25{font-size:36px;}.cls-26{font-size:12px;}.cls-27{letter-spacing:-0.02em;}.cls-28{letter-spacing:-0.01em;}.cls-29{letter-spacing:0.02em;}.cls-30{letter-spacing:0.01em;}.cls-31{letter-spacing:-0.01em;}</style></defs><title>layer-diagram</title><g id="Layer_2" data-name="Layer 2"><rect class="cls-1" x="30.82" y="553.01" width="417" height="86.34"/><rect class="cls-1" x="30.82" y="150.35" width="417" height="340.98"/><rect class="cls-1" x="30.82" y="0.5" width="417" height="86.34"/></g><g id="Layer_1" data-name="Layer 1"><rect class="cls-2" x="168.24" y="574.12" width="144.86" height="45.09"/><text class="cls-3" transform="translate(181.2 603.17)">WCF-HMI.model</text><line class="cls-4" x1="101.09" y1="304.41" x2="381.22" y2="304.41"/><text class="cls-5" transform="translate(212.6 300.16)">clie<tspan class="cls-6" x="23.14" y="0">n</tspan><tspan class="cls-7" x="32.13" y="0">t side</tspan><tspan x="-4.94" y="19.57">se</tspan><tspan class="cls-8" x="9.69" y="19.57">r</tspan><tspan x="15.43" y="19.57">vi</tspan><tspan class="cls-9" x="27.09" y="19.57">c</tspan><tspan class="cls-10" x="34.3" y="19.57">e side</tspan></text><rect class="cls-2" x="107.77" y="21.61" width="122.8" height="45.09"/><rect class="cls-2" x="245.91" y="21.61" width="135.27" height="45.09"/><text class="cls-11" transform="translate(140.46 49.01)">WPF app</text><text class="cls-11" transform="translate(274.41 49.01)">AS<tspan class="cls-12" x="18.02" y="0">P</tspan><tspan x="24.41" y="0">.N</tspan><tspan class="cls-13" x="38.52" y="0">E</tspan><tspan x="46.8" y="0">T si</tspan><tspan class="cls-9" x="68.64" y="0">t</tspan><tspan x="73.94" y="0">e</tspan></text><rect class="cls-2" x="173.82" y="222.35" width="145" height="38.31"/><rect class="cls-2" x="84.82" y="336.27" width="157" height="38.09"/><text class="cls-14" transform="translate(202.88 245.79)">WCF-HMI.p<tspan class="cls-15" x="65.67" y="0">r</tspan><tspan class="cls-16" x="70.11" y="0">o</tspan><tspan class="cls-17" x="77.6" y="0">x</tspan><tspan x="84.29" y="0">y</tspan></text><text class="cls-14" transform="translate(89.78 360.79)">WCF-HMI.se<tspan class="cls-18" x="70.26" y="0">r</tspan><tspan x="75.19" y="0">vi</tspan><tspan class="cls-19" x="85.2" y="0">c</tspan><tspan x="91.39" y="0">e</tspan><tspan class="cls-20" x="98.4" y="0">S</tspan><tspan x="105.39" y="0">elfHost</tspan></text><rect class="cls-2" x="107.82" y="390.35" width="133" height="36"/><rect class="cls-2" x="251.82" y="390.35" width="127" height="36"/><rect class="cls-2" x="251.82" y="336.27" width="164" height="38.09"/><text class="cls-14" transform="translate(264.68 360.79)">WCF-HMI.se<tspan class="cls-18" x="70.26" y="0">r</tspan><tspan x="75.19" y="0">vi</tspan><tspan class="cls-19" x="85.2" y="0">c</tspan><tspan x="91.39" y="0">eIISHost</tspan></text><rect class="cls-2" x="89.82" y="131.35" width="137" height="38.31"/><text class="cls-14" transform="translate(121.69 411.79)">WCF-HMI.<tspan class="cls-19" x="57.71" y="0">c</tspan><tspan x="63.9" y="0">o</tspan><tspan class="cls-21" x="71.58" y="0">n</tspan><tspan x="79.29" y="0">t</tspan><tspan class="cls-22" x="83.93" y="0">r</tspan><tspan x="88.44" y="0">a</tspan><tspan class="cls-23" x="95.18" y="0">c</tspan><tspan x="101.64" y="0">t</tspan></text><text class="cls-14" transform="translate(263.87 413.29)">WCF-HMI.se<tspan class="cls-18" x="70.26" y="0">r</tspan><tspan x="75.19" y="0">vi</tspan><tspan class="cls-19" x="85.2" y="0">c</tspan><tspan x="91.39" y="0">e</tspan></text><line class="cls-24" x1="79.82" y1="382.35" x2="390.82" y2="382.35"/><text class="cls-25" transform="translate(30.13 358.79) rotate(-90)">WCF</text><rect class="cls-2" x="251.82" y="131.35" width="137" height="38.31"/><rect class="cls-2" x="100.82" y="472.35" width="137" height="38.31"/><rect class="cls-2" x="256.82" y="472.35" width="137" height="38.31"/><text class="cls-26" transform="translate(95.32 152.37)">INotify<tspan class="cls-27" x="33.29" y="0">P</tspan><tspan class="cls-28" x="39.48" y="0">r</tspan><tspan x="43.28" y="0">ope</tspan><tspan class="cls-29" x="62.71" y="0">r</tspan><tspan class="cls-30" x="66.92" y="0">t</tspan><tspan x="71" y="0">yChanged</tspan></text><text class="cls-26" transform="translate(107.32 495.37)">INotify<tspan class="cls-27" x="33.29" y="0">P</tspan><tspan class="cls-28" x="39.48" y="0">r</tspan><tspan x="43.28" y="0">ope</tspan><tspan class="cls-29" x="62.71" y="0">r</tspan><tspan class="cls-30" x="66.92" y="0">t</tspan><tspan x="71" y="0">yChanged</tspan></text><text class="cls-26" transform="translate(293.99 154.04)">I<tspan class="cls-31" x="2.87" y="0">C</tspan><tspan x="9.7" y="0">ommand</tspan></text><text class="cls-26" transform="translate(294.99 496.04)">I<tspan class="cls-31" x="2.87" y="0">C</tspan><tspan x="9.7" y="0">ommand</tspan></text><line class="cls-4" x1="238.32" y1="86.85" x2="238.32" y2="149.85"/><line class="cls-4" x1="246.82" y1="491.35" x2="246.82" y2="553.35"/></g></svg>